<svg xmlns="http://www.w3.org/2000/svg" xmlns:xlink="http://www.w3.org/1999/xlink" width="1440" zoomAndPan="magnify" viewBox="0 0 1080 426.749984" height="569" preserveAspectRatio="xMidYMid meet" version="1.0"><defs><clipPath id="a51aa9e5e4"><path d="M 647 0 L 679.417969 0 L 679.417969 42 L 647 42 Z M 647 0 " clip-rule="nonzero"/></clipPath><clipPath id="9b41ce5a81"><path d="M 0.53125 58.054688 L 64 58.054688 L 64 219.679688 L 0.53125 219.679688 Z M 0.53125 58.054688 " clip-rule="nonzero"/></clipPath><clipPath id="dae392653c"><path d="M 0.316406 0 L 64 0 L 64 60 L 0.316406 60 Z M 0.316406 0 " clip-rule="nonzero"/></clipPath><clipPath id="14e8a16dac"><path d="M 616 40 L 679.417969 40 L 679.417969 114 L 616 114 Z M 616 40 " clip-rule="nonzero"/></clipPath><clipPath id="dc3bf007a1"><path d="M 1047 10 L 1079.683594 10 L 1079.683594 84 L 1047 84 Z M 1047 10 " clip-rule="nonzero"/></clipPath><clipPath id="ddf7ba5fa8"><path d="M 1078 11 L 1079.683594 11 L 1079.683594 66 L 1078 66 Z M 1078 11 " clip-rule="nonzero"/></clipPath><clipPath id="985f99a145"><path d="M 1047 64 L 1079.683594 64 L 1079.683594 155 L 1047 155 Z M 1047 64 " clip-rule="nonzero"/></clipPath><clipPath id="302f9476ce"><path d="M 1078 117 L 1079.683594 117 L 1079.683594 137 L 1078 137 Z M 1078 117 " clip-rule="nonzero"/></clipPath><clipPath id="712126e3cf"><path d="M 1048 117 L 1079.683594 117 L 1079.683594 137 L 1048 137 Z M 1048 117 " clip-rule="nonzero"/></clipPath><clipPath id="8e5a25c654"><path d="M 1078 99 L 1079.683594 99 L 1079.683594 119 L 1078 119 Z M 1078 99 " clip-rule="nonzero"/></clipPath><clipPath id="3a7cadbed7"><path d="M 1078 82 L 1079.683594 82 L 1079.683594 118 L 1078 118 Z M 1078 82 " clip-rule="nonzero"/></clipPath><clipPath id="57197dabf3"><path d="M 678.339844 63.773438 L 742 63.773438 L 742 225.398438 L 678.339844 225.398438 Z M 678.339844 63.773438 " clip-rule="nonzero"/></clipPath><clipPath id="e1aff59111"><path d="M 678.125 0 L 742 0 L 742 66 L 678.125 66 Z M 678.125 0 " clip-rule="nonzero"/></clipPath></defs><path fill="#ffffff" d="M 678.15625 95.011719 L 647.023438 77.03125 L 647.023438 41.019531 L 648.617188 41.019531 L 648.617188 76.109375 L 678.15625 93.164062 L 678.15625 95.011719 " fill-opacity="1" fill-rule="nonzero"/><path fill="#ffffff" d="M 616.632812 93.652344 L 647.417969 75.878906 L 648.21875 77.257812 L 617.433594 95.03125 L 616.632812 93.652344 " fill-opacity="1" fill-rule="nonzero"/><path fill="#ffffff" d="M 647.417969 75.878906 L 678.183594 58.117188 L 678.183594 59.957031 L 648.21875 77.257812 L 647.417969 75.878906 " fill-opacity="1" fill-rule="nonzero"/><g clip-path="url(#a51aa9e5e4)"><path fill="#ffffff" d="M 647.421875 40.328125 L 677.800781 22.789062 L 678.59375 -47.839844 L 679.402344 23.707031 L 648.21875 41.714844 L 647.421875 40.328125 " fill-opacity="1" fill-rule="nonzero"/></g><path fill="#ffffff" d="M 647.820312 -47.84375 L 648.617188 41.019531 L 647.023438 41.019531 L 647.820312 -47.84375 " fill-opacity="1" fill-rule="nonzero"/><path fill="#ffffff" d="M 616.238281 58.335938 L 617.03125 -47.84375 L 617.832031 58.796875 L 616.238281 58.335938 " fill-opacity="1" fill-rule="nonzero"/><path fill="#ffffff" d="M 556.261719 129.429688 L 586.25 146.742188 L 616.230469 129.429688 L 616.230469 94.796875 L 556.261719 60.175781 Z M 585.851562 148.355469 L 554.664062 130.347656 C 554.640625 106.035156 554.65625 81.726562 554.664062 57.414062 C 575.714844 69.574219 596.765625 81.742188 617.832031 93.886719 L 617.832031 130.347656 L 586.25 148.582031 L 585.851562 148.355469 " fill-opacity="1" fill-rule="nonzero"/><path fill="#ffffff" d="M 617.433594 95.03125 L 586.648438 112.804688 L 585.851562 111.425781 L 616.632812 93.652344 L 617.433594 95.03125 " fill-opacity="1" fill-rule="nonzero"/><path fill="#ffffff" d="M 555.859375 93.652344 L 586.648438 111.425781 L 585.851562 112.804688 L 555.070312 95.03125 L 555.859375 93.652344 " fill-opacity="1" fill-rule="nonzero"/><path fill="#ffffff" d="M 616.632812 130.582031 L 585.851562 112.804688 L 586.648438 111.425781 L 617.433594 129.199219 L 616.632812 130.582031 " fill-opacity="1" fill-rule="nonzero"/><path fill="#ffffff" d="M 555.0625 129.199219 L 585.851562 111.425781 L 586.648438 112.804688 L 555.863281 130.582031 L 555.0625 129.199219 " fill-opacity="1" fill-rule="nonzero"/><path fill="#ffffff" d="M 585.453125 112.113281 L 585.453125 76.570312 L 587.042969 76.570312 L 587.042969 112.113281 L 585.453125 112.113281 " fill-opacity="1" fill-rule="nonzero"/><path fill="#ffffff" d="M 585.453125 76.570312 L 586.25 -47.84375 L 587.042969 76.570312 L 585.453125 76.570312 " fill-opacity="1" fill-rule="nonzero"/><path fill="#ffffff" d="M 495.488281 58.796875 L 524.679688 75.652344 L 553.871094 58.796875 L 524.679688 41.941406 Z M 524.28125 77.257812 L 492.300781 58.796875 L 524.679688 40.101562 L 557.058594 58.796875 L 524.679688 77.488281 L 524.28125 77.257812 " fill-opacity="1" fill-rule="nonzero"/><path fill="#ffffff" d="M 554.664062 58.796875 L 554.664062 23.246094 L 556.261719 23.246094 L 556.261719 58.796875 L 554.664062 58.796875 " fill-opacity="1" fill-rule="nonzero"/><path fill="#ffffff" d="M 524.277344 40.328125 L 555.0625 22.558594 L 555.863281 23.9375 L 525.078125 41.714844 L 524.277344 40.328125 " fill-opacity="1" fill-rule="nonzero"/><path fill="#ffffff" d="M 494.289062 95.03125 L 463.109375 113.039062 C 452.574219 106.964844 442.050781 100.882812 431.523438 94.804688 L 431.523438 58.335938 C 442.050781 52.269531 452.574219 46.179688 463.109375 40.101562 C 473.628906 46.191406 484.160156 52.269531 494.691406 58.335938 C 494.691406 70.492188 494.679688 82.648438 494.691406 94.804688 Z M 463.109375 111.199219 L 493.089844 93.886719 L 493.089844 59.253906 L 463.109375 41.941406 L 433.121094 59.253906 L 433.121094 93.886719 L 463.109375 111.199219 " fill-opacity="1" fill-rule="nonzero"/><path fill="#ffffff" d="M 431.925781 93.652344 L 462.710938 75.878906 L 463.507812 77.257812 L 432.71875 95.03125 L 431.925781 93.652344 " fill-opacity="1" fill-rule="nonzero"/><path fill="#ffffff" d="M 493.492188 95.03125 L 462.710938 77.257812 L 463.507812 75.878906 L 494.292969 93.652344 L 493.492188 95.03125 " fill-opacity="1" fill-rule="nonzero"/><path fill="#ffffff" d="M 462.703125 77.257812 L 431.921875 59.488281 L 432.722656 58.101562 L 463.507812 75.878906 L 462.703125 77.257812 " fill-opacity="1" fill-rule="nonzero"/><path fill="#ffffff" d="M 462.703125 75.878906 L 493.492188 58.101562 L 494.292969 59.488281 L 463.507812 77.257812 L 462.703125 75.878906 " fill-opacity="1" fill-rule="nonzero"/><path fill="#ffffff" d="M 462.3125 76.570312 L 462.3125 41.023438 L 463.902344 41.023438 L 463.902344 76.570312 L 462.3125 76.570312 " fill-opacity="1" fill-rule="nonzero"/><path fill="#ffffff" d="M 523.878906 41.023438 L 524.679688 -47.84375 L 525.472656 41.023438 L 523.878906 41.023438 " fill-opacity="1" fill-rule="nonzero"/><path fill="#ffffff" d="M 462.703125 40.328125 L 493.492188 22.558594 L 494.292969 23.941406 L 463.507812 41.714844 L 462.703125 40.328125 " fill-opacity="1" fill-rule="nonzero"/><path fill="#ffffff" d="M 370.355469 22.558594 L 401.539062 4.554688 C 412.058594 10.640625 422.59375 16.71875 433.121094 22.789062 L 433.121094 59.253906 C 422.597656 65.335938 412.066406 71.410156 401.539062 77.492188 C 391.007812 71.414062 380.480469 65.332031 369.953125 59.253906 L 369.953125 22.789062 Z M 401.539062 6.390625 L 371.550781 23.707031 L 371.550781 58.339844 L 401.539062 75.652344 L 431.523438 58.335938 L 431.523438 23.707031 L 401.539062 6.390625 " fill-opacity="1" fill-rule="nonzero"/><path fill="#ffffff" d="M 431.925781 59.488281 L 400.742188 41.480469 L 400.742188 5.472656 L 402.332031 5.472656 L 402.332031 40.5625 L 432.71875 58.101562 L 431.925781 59.488281 " fill-opacity="1" fill-rule="nonzero"/><path fill="#ffffff" d="M 431.921875 22.558594 L 463.109375 4.550781 C 473.628906 10.632812 484.160156 16.710938 494.6875 22.785156 L 494.6875 58.796875 L 493.09375 58.796875 L 493.09375 23.707031 L 463.109375 6.394531 L 432.722656 23.9375 L 431.921875 22.558594 " fill-opacity="1" fill-rule="nonzero"/><path fill="#ffffff" d="M 431.523438 23.246094 L 432.320312 -47.851562 L 433.121094 23.246094 L 431.523438 23.246094 " fill-opacity="1" fill-rule="nonzero"/><path fill="#ffffff" d="M 369.953125 23.246094 L 370.753906 -47.84375 L 371.550781 23.246094 L 369.953125 23.246094 " fill-opacity="1" fill-rule="nonzero"/><path fill="#ffffff" d="M 371.550781 58.796875 L 371.550781 129.429688 L 401.539062 146.742188 L 431.523438 129.429688 L 431.523438 94.34375 L 433.121094 94.34375 L 433.121094 130.347656 L 401.539062 148.589844 C 391.007812 142.511719 380.476562 136.4375 369.960938 130.355469 L 369.953125 58.796875 L 371.550781 58.796875 " fill-opacity="1" fill-rule="nonzero"/><path fill="#ffffff" d="M 431.925781 130.582031 L 401.140625 112.808594 L 401.933594 111.425781 L 432.71875 129.199219 L 431.925781 130.582031 " fill-opacity="1" fill-rule="nonzero"/><path fill="#ffffff" d="M 370.355469 129.199219 L 401.140625 111.425781 L 401.933594 112.808594 L 371.152344 130.582031 L 370.355469 129.199219 " fill-opacity="1" fill-rule="nonzero"/><path fill="#ffffff" d="M 401.140625 111.425781 L 431.921875 93.652344 L 432.722656 95.035156 L 401.933594 112.808594 L 401.140625 111.425781 " fill-opacity="1" fill-rule="nonzero"/><path fill="#ffffff" d="M 400.742188 112.121094 L 400.742188 76.570312 L 402.332031 76.570312 L 402.332031 112.121094 L 400.742188 112.121094 " fill-opacity="1" fill-rule="nonzero"/><path fill="#ffffff" d="M 309.980469 129.894531 L 309.980469 164.980469 L 339.96875 182.292969 L 369.953125 164.980469 L 369.953125 129.894531 L 371.550781 129.894531 L 371.550781 165.898438 C 361.027344 171.976562 350.5 178.0625 339.96875 184.132812 C 329.433594 178.0625 318.910156 171.976562 308.382812 165.898438 L 308.382812 129.894531 L 309.980469 129.894531 " fill-opacity="1" fill-rule="nonzero"/><path fill="#ffffff" d="M 308.78125 164.75 L 339.570312 146.976562 L 340.371094 148.359375 L 309.582031 166.132812 L 308.78125 164.75 " fill-opacity="1" fill-rule="nonzero"/><path fill="#ffffff" d="M 370.351562 166.132812 L 339.570312 148.359375 L 340.371094 146.976562 L 371.152344 164.75 L 370.351562 166.132812 " fill-opacity="1" fill-rule="nonzero"/><path fill="#ffffff" d="M 339.570312 148.359375 L 308.785156 130.582031 L 309.578125 129.199219 L 340.363281 146.976562 L 339.570312 148.359375 " fill-opacity="1" fill-rule="nonzero"/><path fill="#ffffff" d="M 339.570312 146.976562 L 370.355469 129.199219 L 371.152344 130.582031 L 340.363281 148.359375 L 339.570312 146.976562 " fill-opacity="1" fill-rule="nonzero"/><path fill="#ffffff" d="M 339.171875 147.664062 L 339.171875 112.121094 L 340.761719 112.121094 L 340.769531 147.664062 L 339.171875 147.664062 " fill-opacity="1" fill-rule="nonzero"/><path fill="#ffffff" d="M 279.191406 112.121094 L 279.191406 182.753906 L 309.179688 200.066406 L 339.570312 182.523438 L 340.363281 183.90625 L 309.179688 201.90625 C 298.652344 195.832031 288.125 189.753906 277.59375 183.671875 L 277.601562 112.121094 L 279.191406 112.121094 " fill-opacity="1" fill-rule="nonzero"/><path fill="#ffffff" d="M 277.992188 182.523438 L 308.78125 164.75 L 309.582031 166.132812 L 278.792969 183.90625 L 277.992188 182.523438 " fill-opacity="1" fill-rule="nonzero"/><path fill="#ffffff" d="M 340.363281 112.808594 L 308.382812 131.273438 C 308.378906 118.808594 308.371094 106.351562 308.382812 93.886719 L 340.769531 75.183594 L 340.769531 112.578125 Z M 309.980469 128.515625 L 339.164062 111.664062 L 339.164062 77.953125 L 309.980469 94.804688 L 309.980469 128.515625 " fill-opacity="1" fill-rule="nonzero"/><path fill="#ffffff" d="M 339.570312 111.425781 L 370.355469 93.652344 L 371.152344 95.035156 L 340.363281 112.808594 L 339.570312 111.425781 " fill-opacity="1" fill-rule="nonzero"/><path fill="#ffffff" d="M 370.351562 95.035156 L 339.570312 77.265625 L 340.371094 75.878906 L 371.152344 93.652344 L 370.351562 95.035156 " fill-opacity="1" fill-rule="nonzero"/><path fill="#ffffff" d="M 339.570312 75.878906 L 370.355469 58.105469 L 371.152344 59.488281 L 340.363281 77.265625 L 339.570312 75.878906 " fill-opacity="1" fill-rule="nonzero"/><path fill="#ffffff" d="M 370.351562 59.488281 L 339.570312 41.714844 L 340.371094 40.328125 L 371.152344 58.101562 L 370.351562 59.488281 " fill-opacity="1" fill-rule="nonzero"/><path fill="#ffffff" d="M 339.570312 40.328125 L 370.355469 22.558594 L 371.148438 23.9375 L 340.363281 41.714844 L 339.570312 40.328125 " fill-opacity="1" fill-rule="nonzero"/><path fill="#ffffff" d="M 339.171875 76.570312 L 339.171875 41.023438 L 340.761719 41.023438 L 340.761719 76.570312 L 339.171875 76.570312 " fill-opacity="1" fill-rule="nonzero"/><path fill="#ffffff" d="M 308.382812 58.796875 L 309.179688 -47.84375 L 309.980469 58.796875 L 309.148438 59.453125 L 308.382812 58.796875 " fill-opacity="1" fill-rule="nonzero"/><path fill="#ffffff" d="M 339.171875 41.023438 L 339.96875 -47.851562 L 340.761719 41.019531 L 339.898438 41.730469 L 339.171875 41.023438 " fill-opacity="1" fill-rule="nonzero"/><path fill="#ffffff" d="M 308.78125 130.582031 L 277.992188 112.808594 L 278.800781 111.425781 L 309.582031 129.199219 L 308.78125 130.582031 " fill-opacity="1" fill-rule="nonzero"/><path fill="#ffffff" d="M 277.992188 111.425781 L 308.78125 93.652344 L 309.582031 95.035156 L 278.800781 112.808594 L 277.992188 111.425781 " fill-opacity="1" fill-rule="nonzero"/><path fill="#ffffff" d="M 218.421875 112.121094 L 247.613281 128.96875 L 276.804688 112.121094 L 247.613281 95.265625 Z M 247.214844 130.582031 L 215.234375 112.113281 L 247.613281 93.425781 C 258.402344 99.660156 269.199219 105.886719 279.992188 112.113281 L 247.613281 130.808594 L 247.214844 130.582031 " fill-opacity="1" fill-rule="nonzero"/><path fill="#ffffff" d="M 277.601562 112.121094 L 277.59375 5.472656 L 279.191406 5.472656 L 279.191406 112.121094 L 277.601562 112.121094 " fill-opacity="1" fill-rule="nonzero"/><path fill="#ffffff" d="M 216.03125 112.121094 L 216.03125 5.480469 L 217.621094 5.480469 L 217.625 112.121094 L 216.03125 112.121094 " fill-opacity="1" fill-rule="nonzero"/><path fill="#ffffff" d="M 308.78125 95.035156 L 277.992188 77.265625 L 278.800781 75.878906 L 309.582031 93.652344 L 308.78125 95.035156 " fill-opacity="1" fill-rule="nonzero"/><path fill="#ffffff" d="M 247.214844 93.652344 L 278 75.878906 L 278.792969 77.265625 L 248.007812 95.035156 L 247.214844 93.652344 " fill-opacity="1" fill-rule="nonzero"/><path fill="#ffffff" d="M 278 75.878906 L 308.785156 58.105469 L 309.578125 59.488281 L 278.792969 77.265625 L 278 75.878906 " fill-opacity="1" fill-rule="nonzero"/><path fill="#ffffff" d="M 278 77.265625 L 216.429688 41.714844 L 217.222656 40.328125 L 278.792969 75.878906 L 278 77.265625 " fill-opacity="1" fill-rule="nonzero"/><path fill="#ffffff" d="M 216.429688 40.328125 L 278 4.785156 L 278.792969 6.164062 L 217.222656 41.714844 L 216.429688 40.328125 " fill-opacity="1" fill-rule="nonzero"/><path fill="#ffffff" d="M 217.222656 148.359375 L 186.042969 166.359375 C 175.507812 160.289062 164.980469 154.210938 154.460938 148.128906 C 154.4375 123.816406 154.460938 99.503906 154.460938 75.191406 C 175.515625 87.347656 196.566406 99.519531 217.625 111.660156 L 217.625 148.128906 Z M 186.042969 164.519531 L 216.03125 147.210938 L 216.03125 112.578125 L 156.050781 77.949219 L 156.050781 147.203125 L 186.042969 164.519531 " fill-opacity="1" fill-rule="nonzero"/><path fill="#ffffff" d="M 154.855469 146.976562 L 185.644531 129.199219 L 186.441406 130.582031 L 155.652344 148.359375 L 154.855469 146.976562 " fill-opacity="1" fill-rule="nonzero"/><path fill="#ffffff" d="M 216.429688 148.359375 L 185.644531 130.582031 L 186.441406 129.199219 L 217.230469 146.976562 L 216.429688 148.359375 " fill-opacity="1" fill-rule="nonzero"/><path fill="#ffffff" d="M 185.246094 129.894531 L 185.246094 94.34375 L 186.839844 94.34375 L 186.839844 129.894531 L 185.246094 129.894531 " fill-opacity="1" fill-rule="nonzero"/><path fill="#ffffff" d="M 154.855469 75.878906 L 216.429688 40.328125 L 217.230469 41.714844 L 155.65625 77.265625 L 154.855469 75.878906 " fill-opacity="1" fill-rule="nonzero"/><path fill="#ffffff" d="M 185.246094 94.34375 L 185.246094 58.796875 L 186.839844 58.796875 L 186.839844 94.34375 L 185.246094 94.34375 " fill-opacity="1" fill-rule="nonzero"/><path fill="#ffffff" d="M 185.246094 58.796875 L 185.246094 23.25 L 186.839844 23.25 L 186.839844 58.796875 L 185.246094 58.796875 " fill-opacity="1" fill-rule="nonzero"/><path fill="#ffffff" d="M 185.640625 22.558594 L 216.429688 4.785156 L 217.230469 6.164062 L 186.441406 23.941406 L 185.640625 22.558594 " fill-opacity="1" fill-rule="nonzero"/><path fill="#ffffff" d="M 154.855469 40.328125 L 185.644531 22.558594 L 186.441406 23.941406 L 155.652344 41.714844 L 154.855469 40.328125 " fill-opacity="1" fill-rule="nonzero"/><path fill="#ffffff" d="M 154.460938 76.570312 L 154.460938 5.472656 L 156.050781 5.472656 L 156.050781 76.570312 L 154.460938 76.570312 " fill-opacity="1" fill-rule="nonzero"/><path fill="#ffffff" d="M 185.246094 23.25 L 186.042969 -47.84375 L 186.839844 23.25 L 185.246094 23.25 " fill-opacity="1" fill-rule="nonzero"/><path fill="#ffffff" d="M 94.484375 112.121094 L 94.484375 147.210938 L 124.46875 164.519531 L 154.855469 146.976562 L 155.652344 148.359375 L 124.46875 166.359375 C 113.9375 160.289062 103.417969 154.207031 92.890625 148.128906 L 92.890625 112.121094 L 94.484375 112.121094 " fill-opacity="1" fill-rule="nonzero"/><path fill="#ffffff" d="M 63.695312 94.34375 L 63.695312 164.980469 L 93.683594 182.292969 L 124.074219 164.75 L 124.871094 166.132812 L 93.683594 184.132812 L 62.101562 165.898438 L 62.101562 94.34375 L 63.695312 94.34375 " fill-opacity="1" fill-rule="nonzero"/><g clip-path="url(#9b41ce5a81)"><path fill="#ffffff" d="M 2.125 200.527344 L 32.117188 217.84375 L 62.101562 200.53125 L 62.101562 165.4375 L 63.703125 165.4375 L 63.703125 201.445312 C 53.167969 207.527344 42.648438 213.605469 32.117188 219.679688 C 22.382812 214.066406 10.257812 207.074219 0.53125 201.445312 L 0.53125 93.890625 L 62.503906 58.101562 L 63.300781 59.488281 L 2.125 94.808594 L 2.125 200.527344 " fill-opacity="1" fill-rule="nonzero"/></g><path fill="#ffffff" d="M 1.695312 199.855469 L 31.714844 182.527344 L 32.511719 183.90625 L 1.695312 201.699219 L 1.695312 199.855469 " fill-opacity="1" fill-rule="nonzero"/><path fill="#ffffff" d="M 62.503906 201.679688 L 31.714844 183.90625 L 32.511719 182.527344 L 63.292969 200.292969 L 62.503906 201.679688 " fill-opacity="1" fill-rule="nonzero"/><path fill="#ffffff" d="M 31.316406 183.214844 L 31.316406 147.664062 L 32.910156 147.664062 L 32.910156 183.214844 L 31.316406 183.214844 " fill-opacity="1" fill-rule="nonzero"/><path fill="#ffffff" d="M 154.855469 148.359375 L 93.285156 112.808594 L 94.085938 111.425781 L 155.65625 146.976562 L 154.855469 148.359375 " fill-opacity="1" fill-rule="nonzero"/><path fill="#ffffff" d="M 62.503906 164.75 L 124.070312 129.199219 L 124.871094 130.582031 L 63.300781 166.132812 L 62.503906 164.75 " fill-opacity="1" fill-rule="nonzero"/><path fill="#ffffff" d="M 123.671875 129.886719 L 123.671875 94.34375 L 125.261719 94.34375 L 125.269531 129.886719 L 123.671875 129.886719 " fill-opacity="1" fill-rule="nonzero"/><path fill="#ffffff" d="M 93.285156 111.425781 L 154.855469 75.878906 L 155.65625 77.257812 L 94.085938 112.808594 L 93.285156 111.425781 " fill-opacity="1" fill-rule="nonzero"/><path fill="#ffffff" d="M 154.855469 77.257812 L 93.285156 41.714844 L 94.085938 40.328125 L 155.65625 75.878906 L 154.855469 77.257812 " fill-opacity="1" fill-rule="nonzero"/><path fill="#ffffff" d="M 92.890625 112.121094 L 92.890625 41.023438 L 94.484375 41.023438 L 94.484375 112.121094 L 92.890625 112.121094 " fill-opacity="1" fill-rule="nonzero"/><path fill="#ffffff" d="M 124.070312 58.105469 L 154.855469 40.328125 L 155.652344 41.714844 L 124.871094 59.488281 L 124.070312 58.105469 " fill-opacity="1" fill-rule="nonzero"/><path fill="#ffffff" d="M 123.671875 94.34375 L 123.671875 58.796875 L 125.261719 58.796875 L 125.261719 94.34375 L 123.671875 94.34375 " fill-opacity="1" fill-rule="nonzero"/><path fill="#ffffff" d="M 93.285156 40.328125 L 155.253906 4.554688 L 217.230469 40.328125 L 216.429688 41.714844 L 155.253906 6.394531 L 94.085938 41.714844 L 93.285156 40.328125 " fill-opacity="1" fill-rule="nonzero"/><path fill="#ffffff" d="M 123.671875 58.796875 L 123.671875 23.246094 L 125.261719 23.246094 L 125.261719 58.796875 L 123.671875 58.796875 " fill-opacity="1" fill-rule="nonzero"/><path fill="#ffffff" d="M 93.285156 148.359375 L 62.503906 130.582031 L 63.300781 129.199219 L 94.085938 146.976562 L 93.285156 148.359375 " fill-opacity="1" fill-rule="nonzero"/><path fill="#ffffff" d="M 31.714844 182.527344 L 62.503906 164.75 L 63.292969 166.132812 L 32.511719 183.90625 L 31.714844 182.527344 " fill-opacity="1" fill-rule="nonzero"/><path fill="#ffffff" d="M 31.714844 146.976562 L 62.503906 129.199219 L 63.300781 130.582031 L 32.515625 148.359375 L 31.714844 146.976562 " fill-opacity="1" fill-rule="nonzero"/><path fill="#ffffff" d="M 31.714844 148.359375 L 1.316406 130.804688 L 1.316406 128.964844 L 32.511719 146.976562 L 31.714844 148.359375 " fill-opacity="1" fill-rule="nonzero"/><path fill="#ffffff" d="M 62.503906 130.582031 L 1.695312 95.476562 L 1.695312 93.636719 L 63.300781 129.199219 L 62.503906 130.582031 " fill-opacity="1" fill-rule="nonzero"/><path fill="#ffffff" d="M 62.503906 93.652344 L 93.285156 75.878906 L 94.085938 77.265625 L 63.300781 95.035156 L 62.503906 93.652344 " fill-opacity="1" fill-rule="nonzero"/><path fill="#ffffff" d="M 62.101562 94.34375 L 62.101562 23.246094 L 63.695312 23.246094 L 63.695312 94.34375 L 62.101562 94.34375 " fill-opacity="1" fill-rule="nonzero"/><path fill="#ffffff" d="M 93.285156 77.265625 L 62.503906 59.488281 L 63.300781 58.105469 L 94.085938 75.878906 L 93.285156 77.265625 " fill-opacity="1" fill-rule="nonzero"/><path fill="#ffffff" d="M 62.503906 58.105469 L 93.285156 40.328125 L 94.085938 41.714844 L 63.300781 59.488281 L 62.503906 58.105469 " fill-opacity="1" fill-rule="nonzero"/><path fill="#ffffff" d="M 31.316406 112.121094 L 31.316406 76.570312 L 32.914062 76.570312 L 32.914062 112.121094 L 31.316406 112.121094 " fill-opacity="1" fill-rule="nonzero"/><path fill="#ffffff" d="M 31.316406 76.570312 L 31.316406 41.023438 L 32.910156 41.023438 L 32.914062 76.570312 L 31.316406 76.570312 " fill-opacity="1" fill-rule="nonzero"/><g clip-path="url(#dae392653c)"><path fill="#ffffff" d="M 62.503906 59.488281 L 0.53125 23.707031 L 1.324219 -47.851562 L 2.117188 22.78125 L 63.300781 58.101562 L 62.503906 59.488281 " fill-opacity="1" fill-rule="nonzero"/></g><path fill="#ffffff" d="M 31.714844 40.328125 L 62.503906 22.558594 L 63.300781 23.941406 L 32.515625 41.714844 L 31.714844 40.328125 " fill-opacity="1" fill-rule="nonzero"/><path fill="#ffffff" d="M 554.664062 23.246094 L 555.460938 -47.84375 L 556.261719 23.246094 L 555.355469 23.839844 L 554.664062 23.246094 " fill-opacity="1" fill-rule="nonzero"/><path fill="#ffffff" d="M 308.382812 94.34375 L 308.382812 58.796875 L 309.980469 58.796875 L 309.980469 94.34375 L 308.382812 94.34375 " fill-opacity="1" fill-rule="nonzero"/><path fill="#ffffff" d="M 277.59375 5.472656 L 278.394531 -47.84375 L 279.191406 5.472656 L 278.386719 6.078125 L 277.59375 5.472656 " fill-opacity="1" fill-rule="nonzero"/><path fill="#ffffff" d="M 216.03125 5.480469 L 216.824219 -47.84375 L 217.621094 5.480469 L 216.773438 6.007812 L 216.03125 5.480469 " fill-opacity="1" fill-rule="nonzero"/><path fill="#ffffff" d="M 92.890625 41.023438 L 93.683594 -47.84375 L 94.484375 41.023438 L 92.890625 41.023438 " fill-opacity="1" fill-rule="nonzero"/><path fill="#ffffff" d="M 62.101562 23.246094 L 62.902344 -47.84375 L 63.695312 23.246094 L 62.839844 23.910156 L 62.101562 23.246094 " fill-opacity="1" fill-rule="nonzero"/><path fill="#ffffff" d="M 31.316406 41.023438 L 32.117188 -47.84375 L 32.910156 41.023438 L 31.316406 41.023438 " fill-opacity="1" fill-rule="nonzero"/><g clip-path="url(#14e8a16dac)"><path fill="#ffffff" d="M 679.402344 94.796875 C 669.671875 100.414062 657.550781 107.421875 647.820312 113.039062 C 637.285156 106.964844 626.757812 100.886719 616.238281 94.796875 C 616.226562 82.648438 616.226562 70.492188 616.238281 58.335938 L 616.632812 58.101562 L 647.820312 40.101562 C 657.546875 45.722656 669.671875 52.722656 679.402344 58.335938 C 679.402344 70.492188 679.402344 82.648438 679.402344 94.796875 Z M 677.800781 93.886719 L 677.800781 59.253906 L 647.820312 41.941406 L 617.832031 59.257812 L 617.832031 93.886719 L 647.820312 111.199219 L 677.800781 93.886719 " fill-opacity="1" fill-rule="evenodd"/></g><g clip-path="url(#dc3bf007a1)"><path fill="#ffffff" d="M 1048.164062 28.273438 L 1079.347656 10.273438 C 1089.867188 16.355469 1100.402344 22.433594 1110.929688 28.507812 L 1110.929688 64.96875 C 1100.40625 71.054688 1089.875 77.125 1079.347656 83.210938 C 1068.816406 77.132812 1058.289062 71.046875 1047.761719 64.96875 L 1047.761719 28.507812 Z M 1079.347656 12.109375 L 1049.359375 29.425781 L 1049.359375 64.058594 L 1079.347656 81.371094 L 1109.332031 64.054688 L 1109.332031 29.425781 L 1079.347656 12.109375 " fill-opacity="1" fill-rule="nonzero"/></g><g clip-path="url(#ddf7ba5fa8)"><path fill="#ffffff" d="M 1109.734375 65.203125 L 1078.550781 47.199219 L 1078.550781 11.191406 L 1080.140625 11.191406 L 1080.140625 46.28125 L 1110.527344 63.820312 L 1109.734375 65.203125 " fill-opacity="1" fill-rule="nonzero"/></g><path fill="#ffffff" d="M 1047.761719 28.964844 L 1048.5625 -42.128906 L 1049.359375 28.964844 L 1047.761719 28.964844 " fill-opacity="1" fill-rule="nonzero"/><g clip-path="url(#985f99a145)"><path fill="#ffffff" d="M 1049.359375 64.515625 L 1049.359375 135.148438 L 1079.347656 152.460938 L 1109.332031 135.148438 L 1109.332031 100.058594 L 1110.929688 100.058594 L 1110.929688 136.066406 L 1079.347656 154.304688 C 1068.816406 148.226562 1058.285156 142.15625 1047.769531 136.070312 L 1047.761719 64.515625 L 1049.359375 64.515625 " fill-opacity="1" fill-rule="nonzero"/></g><g clip-path="url(#302f9476ce)"><path fill="#ffffff" d="M 1109.734375 136.300781 L 1078.949219 118.527344 L 1079.742188 117.144531 L 1110.527344 134.914062 L 1109.734375 136.300781 " fill-opacity="1" fill-rule="nonzero"/></g><g clip-path="url(#712126e3cf)"><path fill="#ffffff" d="M 1048.164062 134.914062 L 1078.949219 117.144531 L 1079.742188 118.527344 L 1048.960938 136.300781 L 1048.164062 134.914062 " fill-opacity="1" fill-rule="nonzero"/></g><g clip-path="url(#8e5a25c654)"><path fill="#ffffff" d="M 1078.949219 117.144531 L 1109.730469 99.371094 L 1110.53125 100.753906 L 1079.742188 118.527344 L 1078.949219 117.144531 " fill-opacity="1" fill-rule="nonzero"/></g><g clip-path="url(#3a7cadbed7)"><path fill="#ffffff" d="M 1078.550781 117.835938 L 1078.550781 82.289062 L 1080.140625 82.289062 L 1080.140625 117.835938 L 1078.550781 117.835938 " fill-opacity="1" fill-rule="nonzero"/></g><path fill="#ffffff" d="M 987.789062 135.609375 L 987.789062 170.699219 L 1017.773438 188.011719 L 1047.761719 170.699219 L 1047.761719 135.609375 L 1049.359375 135.609375 L 1049.359375 171.617188 C 1038.835938 177.695312 1028.308594 183.777344 1017.773438 189.851562 C 1007.242188 183.777344 996.71875 177.695312 986.191406 171.617188 L 986.191406 135.609375 L 987.789062 135.609375 " fill-opacity="1" fill-rule="nonzero"/><path fill="#ffffff" d="M 986.589844 170.464844 L 1017.378906 152.695312 L 1018.179688 154.078125 L 987.390625 171.851562 L 986.589844 170.464844 " fill-opacity="1" fill-rule="nonzero"/><path fill="#ffffff" d="M 1048.160156 171.851562 L 1017.378906 154.078125 L 1018.179688 152.695312 L 1048.960938 170.464844 L 1048.160156 171.851562 " fill-opacity="1" fill-rule="nonzero"/><path fill="#ffffff" d="M 1017.378906 154.078125 L 986.59375 136.300781 L 987.386719 134.914062 L 1018.171875 152.695312 L 1017.378906 154.078125 " fill-opacity="1" fill-rule="nonzero"/><path fill="#ffffff" d="M 1017.378906 152.695312 L 1048.164062 134.914062 L 1048.960938 136.300781 L 1018.171875 154.078125 L 1017.378906 152.695312 " fill-opacity="1" fill-rule="nonzero"/><path fill="#ffffff" d="M 1016.980469 153.382812 L 1016.980469 117.835938 L 1018.570312 117.835938 L 1018.578125 153.382812 L 1016.980469 153.382812 " fill-opacity="1" fill-rule="nonzero"/><path fill="#ffffff" d="M 957 117.835938 L 957 188.472656 L 986.988281 205.785156 L 1017.378906 188.238281 L 1018.171875 189.625 L 986.988281 207.625 C 976.460938 201.550781 965.933594 195.472656 955.402344 189.390625 L 955.410156 117.835938 L 957 117.835938 " fill-opacity="1" fill-rule="nonzero"/><path fill="#ffffff" d="M 955.800781 188.238281 L 986.589844 170.464844 L 987.390625 171.851562 L 956.601562 189.625 L 955.800781 188.238281 " fill-opacity="1" fill-rule="nonzero"/><path fill="#ffffff" d="M 1018.171875 118.527344 L 986.191406 136.988281 C 986.1875 124.527344 986.179688 112.066406 986.191406 99.605469 L 1018.578125 80.902344 L 1018.578125 118.292969 Z M 987.789062 134.230469 L 1016.972656 117.382812 L 1016.972656 83.671875 L 987.789062 100.519531 L 987.789062 134.230469 " fill-opacity="1" fill-rule="nonzero"/><path fill="#ffffff" d="M 1017.378906 117.144531 L 1048.164062 99.371094 L 1048.960938 100.753906 L 1018.171875 118.527344 L 1017.378906 117.144531 " fill-opacity="1" fill-rule="nonzero"/><path fill="#ffffff" d="M 1048.160156 100.753906 L 1017.378906 82.980469 L 1018.179688 81.597656 L 1048.960938 99.371094 L 1048.160156 100.753906 " fill-opacity="1" fill-rule="nonzero"/><path fill="#ffffff" d="M 1017.378906 81.597656 L 1048.164062 63.824219 L 1048.960938 65.203125 L 1018.171875 82.980469 L 1017.378906 81.597656 " fill-opacity="1" fill-rule="nonzero"/><path fill="#ffffff" d="M 1048.160156 65.203125 L 1017.378906 47.429688 L 1018.179688 46.046875 L 1048.960938 63.820312 L 1048.160156 65.203125 " fill-opacity="1" fill-rule="nonzero"/><path fill="#ffffff" d="M 1017.378906 46.046875 L 1048.164062 28.273438 L 1048.957031 29.652344 L 1018.171875 47.429688 L 1017.378906 46.046875 " fill-opacity="1" fill-rule="nonzero"/><path fill="#ffffff" d="M 1016.980469 82.289062 L 1016.980469 46.742188 L 1018.570312 46.742188 L 1018.570312 82.289062 L 1016.980469 82.289062 " fill-opacity="1" fill-rule="nonzero"/><path fill="#ffffff" d="M 986.191406 64.515625 L 986.988281 -42.128906 L 987.789062 64.515625 L 986.957031 65.171875 L 986.191406 64.515625 " fill-opacity="1" fill-rule="nonzero"/><path fill="#ffffff" d="M 1016.980469 46.742188 L 1017.773438 -42.132812 L 1018.570312 46.738281 L 1017.707031 47.445312 L 1016.980469 46.742188 " fill-opacity="1" fill-rule="nonzero"/><path fill="#ffffff" d="M 986.589844 136.300781 L 955.800781 118.527344 L 956.609375 117.144531 L 987.390625 134.914062 L 986.589844 136.300781 " fill-opacity="1" fill-rule="nonzero"/><path fill="#ffffff" d="M 955.800781 117.144531 L 986.589844 99.371094 L 987.390625 100.753906 L 956.609375 118.527344 L 955.800781 117.144531 " fill-opacity="1" fill-rule="nonzero"/><path fill="#ffffff" d="M 896.230469 117.835938 L 925.421875 134.6875 L 954.613281 117.835938 L 925.421875 100.984375 Z M 925.023438 136.300781 L 893.042969 117.832031 L 925.421875 99.140625 C 936.210938 105.378906 947.007812 111.605469 957.800781 117.832031 L 925.421875 136.527344 L 925.023438 136.300781 " fill-opacity="1" fill-rule="nonzero"/><path fill="#ffffff" d="M 955.410156 117.835938 L 955.402344 11.191406 L 957 11.191406 L 957 117.835938 L 955.410156 117.835938 " fill-opacity="1" fill-rule="nonzero"/><path fill="#ffffff" d="M 893.839844 117.835938 L 893.839844 11.195312 L 895.429688 11.195312 L 895.433594 117.835938 L 893.839844 117.835938 " fill-opacity="1" fill-rule="nonzero"/><path fill="#ffffff" d="M 986.589844 100.753906 L 955.800781 82.980469 L 956.609375 81.597656 L 987.390625 99.371094 L 986.589844 100.753906 " fill-opacity="1" fill-rule="nonzero"/><path fill="#ffffff" d="M 925.023438 99.371094 L 955.808594 81.597656 L 956.601562 82.980469 L 925.816406 100.753906 L 925.023438 99.371094 " fill-opacity="1" fill-rule="nonzero"/><path fill="#ffffff" d="M 955.808594 81.597656 L 986.59375 63.824219 L 987.386719 65.203125 L 956.601562 82.980469 L 955.808594 81.597656 " fill-opacity="1" fill-rule="nonzero"/><path fill="#ffffff" d="M 955.808594 82.980469 L 894.238281 47.429688 L 895.03125 46.046875 L 956.601562 81.597656 L 955.808594 82.980469 " fill-opacity="1" fill-rule="nonzero"/><path fill="#ffffff" d="M 894.238281 46.046875 L 955.808594 10.5 L 956.601562 11.878906 L 895.03125 47.429688 L 894.238281 46.046875 " fill-opacity="1" fill-rule="nonzero"/><path fill="#ffffff" d="M 895.03125 154.078125 L 863.851562 172.078125 C 853.316406 166.007812 842.789062 159.929688 832.269531 153.84375 C 832.246094 129.53125 832.269531 105.21875 832.269531 80.910156 C 853.324219 93.0625 874.375 105.234375 895.433594 117.375 L 895.433594 153.84375 Z M 863.851562 170.238281 L 893.839844 152.925781 L 893.839844 118.292969 L 833.859375 83.667969 L 833.859375 152.921875 L 863.851562 170.238281 " fill-opacity="1" fill-rule="nonzero"/><path fill="#ffffff" d="M 832.664062 152.695312 L 863.453125 134.914062 L 864.25 136.300781 L 833.460938 154.078125 L 832.664062 152.695312 " fill-opacity="1" fill-rule="nonzero"/><path fill="#ffffff" d="M 894.238281 154.078125 L 863.453125 136.300781 L 864.25 134.914062 L 895.039062 152.695312 L 894.238281 154.078125 " fill-opacity="1" fill-rule="nonzero"/><path fill="#ffffff" d="M 863.054688 135.609375 L 863.054688 100.058594 L 864.648438 100.058594 L 864.648438 135.609375 L 863.054688 135.609375 " fill-opacity="1" fill-rule="nonzero"/><path fill="#ffffff" d="M 832.664062 81.597656 L 894.238281 46.046875 L 895.039062 47.429688 L 833.464844 82.980469 L 832.664062 81.597656 " fill-opacity="1" fill-rule="nonzero"/><path fill="#ffffff" d="M 863.054688 100.058594 L 863.054688 64.515625 L 864.648438 64.515625 L 864.648438 100.058594 L 863.054688 100.058594 " fill-opacity="1" fill-rule="nonzero"/><path fill="#ffffff" d="M 863.054688 64.515625 L 863.054688 28.96875 L 864.648438 28.96875 L 864.648438 64.515625 L 863.054688 64.515625 " fill-opacity="1" fill-rule="nonzero"/><path fill="#ffffff" d="M 863.449219 28.273438 L 894.238281 10.5 L 895.039062 11.878906 L 864.25 29.660156 L 863.449219 28.273438 " fill-opacity="1" fill-rule="nonzero"/><path fill="#ffffff" d="M 832.664062 46.046875 L 863.453125 28.273438 L 864.25 29.660156 L 833.460938 47.429688 L 832.664062 46.046875 " fill-opacity="1" fill-rule="nonzero"/><path fill="#ffffff" d="M 832.269531 82.289062 L 832.269531 11.191406 L 833.859375 11.191406 L 833.859375 82.289062 L 832.269531 82.289062 " fill-opacity="1" fill-rule="nonzero"/><path fill="#ffffff" d="M 863.054688 28.96875 L 863.851562 -42.128906 L 864.648438 28.96875 L 863.054688 28.96875 " fill-opacity="1" fill-rule="nonzero"/><path fill="#ffffff" d="M 772.292969 117.835938 L 772.292969 152.925781 L 802.277344 170.238281 L 832.664062 152.695312 L 833.460938 154.078125 L 802.277344 172.078125 C 791.746094 166.007812 781.226562 159.921875 770.699219 153.84375 L 770.699219 117.835938 L 772.292969 117.835938 " fill-opacity="1" fill-rule="nonzero"/><path fill="#ffffff" d="M 741.503906 100.058594 L 741.503906 170.699219 L 771.492188 188.011719 L 801.882812 170.464844 L 802.679688 171.851562 L 771.492188 189.851562 L 739.910156 171.617188 L 739.910156 100.058594 L 741.503906 100.058594 " fill-opacity="1" fill-rule="nonzero"/><g clip-path="url(#57197dabf3)"><path fill="#ffffff" d="M 679.933594 206.246094 L 709.925781 223.5625 L 739.910156 206.25 L 739.910156 171.15625 L 741.511719 171.15625 L 741.511719 207.164062 C 730.976562 213.246094 720.457031 219.324219 709.925781 225.398438 C 700.191406 219.785156 688.066406 212.789062 678.339844 207.164062 L 678.339844 99.609375 L 740.3125 63.820312 L 741.109375 65.203125 L 679.933594 100.527344 L 679.933594 206.246094 " fill-opacity="1" fill-rule="nonzero"/></g><path fill="#ffffff" d="M 679.503906 205.570312 L 709.523438 188.246094 L 710.320312 189.625 L 679.503906 207.417969 L 679.503906 205.570312 " fill-opacity="1" fill-rule="nonzero"/><path fill="#ffffff" d="M 740.3125 207.394531 L 709.523438 189.625 L 710.320312 188.246094 L 741.101562 206.011719 L 740.3125 207.394531 " fill-opacity="1" fill-rule="nonzero"/><path fill="#ffffff" d="M 709.125 188.933594 L 709.125 153.382812 L 710.71875 153.382812 L 710.71875 188.933594 L 709.125 188.933594 " fill-opacity="1" fill-rule="nonzero"/><path fill="#ffffff" d="M 832.664062 154.078125 L 771.09375 118.527344 L 771.894531 117.144531 L 833.464844 152.695312 L 832.664062 154.078125 " fill-opacity="1" fill-rule="nonzero"/><path fill="#ffffff" d="M 740.3125 170.464844 L 801.878906 134.914062 L 802.679688 136.300781 L 741.109375 171.851562 L 740.3125 170.464844 " fill-opacity="1" fill-rule="nonzero"/><path fill="#ffffff" d="M 801.480469 135.605469 L 801.480469 100.058594 L 803.070312 100.058594 L 803.078125 135.605469 L 801.480469 135.605469 " fill-opacity="1" fill-rule="nonzero"/><path fill="#ffffff" d="M 771.09375 117.144531 L 832.664062 81.597656 L 833.464844 82.976562 L 771.894531 118.527344 L 771.09375 117.144531 " fill-opacity="1" fill-rule="nonzero"/><path fill="#ffffff" d="M 832.664062 82.976562 L 771.09375 47.429688 L 771.894531 46.046875 L 833.464844 81.597656 L 832.664062 82.976562 " fill-opacity="1" fill-rule="nonzero"/><path fill="#ffffff" d="M 770.699219 117.835938 L 770.699219 46.742188 L 772.292969 46.742188 L 772.292969 117.835938 L 770.699219 117.835938 " fill-opacity="1" fill-rule="nonzero"/><path fill="#ffffff" d="M 801.878906 63.824219 L 832.664062 46.046875 L 833.460938 47.429688 L 802.679688 65.203125 L 801.878906 63.824219 " fill-opacity="1" fill-rule="nonzero"/><path fill="#ffffff" d="M 801.480469 100.058594 L 801.480469 64.515625 L 803.070312 64.515625 L 803.070312 100.058594 L 801.480469 100.058594 " fill-opacity="1" fill-rule="nonzero"/><path fill="#ffffff" d="M 771.09375 46.046875 L 833.0625 10.273438 L 895.039062 46.046875 L 894.238281 47.429688 L 833.0625 12.113281 L 771.894531 47.429688 L 771.09375 46.046875 " fill-opacity="1" fill-rule="nonzero"/><path fill="#ffffff" d="M 801.480469 64.515625 L 801.480469 28.964844 L 803.070312 28.964844 L 803.070312 64.515625 L 801.480469 64.515625 " fill-opacity="1" fill-rule="nonzero"/><path fill="#ffffff" d="M 771.09375 154.078125 L 740.3125 136.300781 L 741.109375 134.914062 L 771.894531 152.695312 L 771.09375 154.078125 " fill-opacity="1" fill-rule="nonzero"/><path fill="#ffffff" d="M 709.523438 188.246094 L 740.3125 170.464844 L 741.101562 171.851562 L 710.320312 189.625 L 709.523438 188.246094 " fill-opacity="1" fill-rule="nonzero"/><path fill="#ffffff" d="M 709.523438 152.695312 L 740.3125 134.914062 L 741.109375 136.300781 L 710.324219 154.078125 L 709.523438 152.695312 " fill-opacity="1" fill-rule="nonzero"/><path fill="#ffffff" d="M 709.523438 154.078125 L 679.125 136.523438 L 679.125 134.683594 L 710.320312 152.695312 L 709.523438 154.078125 " fill-opacity="1" fill-rule="nonzero"/><path fill="#ffffff" d="M 740.3125 136.300781 L 679.503906 101.195312 L 679.503906 99.355469 L 741.109375 134.914062 L 740.3125 136.300781 " fill-opacity="1" fill-rule="nonzero"/><path fill="#ffffff" d="M 740.3125 99.371094 L 771.09375 81.597656 L 771.894531 82.980469 L 741.109375 100.753906 L 740.3125 99.371094 " fill-opacity="1" fill-rule="nonzero"/><path fill="#ffffff" d="M 739.910156 100.058594 L 739.910156 28.964844 L 741.503906 28.964844 L 741.503906 100.058594 L 739.910156 100.058594 " fill-opacity="1" fill-rule="nonzero"/><path fill="#ffffff" d="M 771.09375 82.980469 L 740.3125 65.203125 L 741.109375 63.824219 L 771.894531 81.597656 L 771.09375 82.980469 " fill-opacity="1" fill-rule="nonzero"/><path fill="#ffffff" d="M 740.3125 63.824219 L 771.09375 46.046875 L 771.894531 47.429688 L 741.109375 65.203125 L 740.3125 63.824219 " fill-opacity="1" fill-rule="nonzero"/><path fill="#ffffff" d="M 709.125 117.835938 L 709.125 82.289062 L 710.722656 82.289062 L 710.722656 117.835938 L 709.125 117.835938 " fill-opacity="1" fill-rule="nonzero"/><path fill="#ffffff" d="M 709.125 82.289062 L 709.125 46.742188 L 710.71875 46.742188 L 710.722656 82.289062 L 709.125 82.289062 " fill-opacity="1" fill-rule="nonzero"/><g clip-path="url(#e1aff59111)"><path fill="#ffffff" d="M 740.3125 65.203125 L 678.339844 29.425781 L 679.132812 -42.132812 L 679.925781 28.496094 L 741.109375 63.820312 L 740.3125 65.203125 " fill-opacity="1" fill-rule="nonzero"/></g><path fill="#ffffff" d="M 709.523438 46.046875 L 740.3125 28.273438 L 741.109375 29.660156 L 710.324219 47.429688 L 709.523438 46.046875 " fill-opacity="1" fill-rule="nonzero"/><path fill="#ffffff" d="M 986.191406 100.058594 L 986.191406 64.515625 L 987.789062 64.515625 L 987.789062 100.058594 L 986.191406 100.058594 " fill-opacity="1" fill-rule="nonzero"/><path fill="#ffffff" d="M 955.402344 11.191406 L 956.203125 -42.128906 L 957 11.191406 L 956.195312 11.796875 L 955.402344 11.191406 " fill-opacity="1" fill-rule="nonzero"/><path fill="#ffffff" d="M 893.839844 11.195312 L 894.632812 -42.128906 L 895.429688 11.195312 L 894.582031 11.726562 L 893.839844 11.195312 " fill-opacity="1" fill-rule="nonzero"/><path fill="#ffffff" d="M 770.699219 46.742188 L 771.492188 -42.128906 L 772.292969 46.742188 L 770.699219 46.742188 " fill-opacity="1" fill-rule="nonzero"/><path fill="#ffffff" d="M 739.910156 28.964844 L 740.710938 -42.128906 L 741.503906 28.964844 L 740.648438 29.625 L 739.910156 28.964844 " fill-opacity="1" fill-rule="nonzero"/><path fill="#ffffff" d="M 709.125 46.742188 L 709.925781 -42.128906 L 710.71875 46.742188 L 709.125 46.742188 " fill-opacity="1" fill-rule="nonzero"/></svg>